Coordinates
version=1
nRows=4
nColumns=114
inDegrees=yes

Units are S.I. units (second, meters, Newtons, ...)
If the header above contains a line with 'inDegrees', this indicates whether rotational values are in degrees (yes) or radians (no).

endheader 
time	pelvis_tilt	pelvis_list	pelvis_rotation	pelvis_tx	pelvis_ty	pelvis_tz	hip_flexion_l	hip_adduction_l	hip_rotation_l	hip_flexion_r	hip_adduction_r	hip_rotation_r	knee_angle_l	knee_angle_r	ankle_angle_l	ankle_angle_r	subtalar_angle_l	subtalar_angle_r	mtp_angle_l	mtp_angle_r	lumbar_extension	lumbar_bending	lumbar_rotation	arm_flex_l	arm_add_l	arm_rot_l	arm_flex_r	arm_add_r	arm_rot_r	elbow_flex_l	elbow_flex_r	pro_sup_l	pro_sup_r	addbrev_l/activation	addlong_l/activation	addmagDist_l/activation	addmagIsch_l/activation	addmagMid_l/activation	addmagProx_l/activation	bflh_l/activation	bfsh_l/activation	edl_l/activation	ehl_l/activation	fdl_l/activation	fhl_l/activation	gaslat_l/activation	gasmed_l/activation	glmax1_l/activation	glmax2_l/activation	glmax3_l/activation	glmed1_l/activation	glmed2_l/activation	glmed3_l/activation	glmin1_l/activation	glmin2_l/activation	glmin3_l/activation	grac_l/activation	iliacus_l/activation	perbrev_l/activation	perlong_l/activation	piri_l/activation	psoas_l/activation	recfem_l/activation	sart_l/activation	semimem_l/activation	semiten_l/activation	soleus_l/activation	tfl_l/activation	tibant_l/activation	tibpost_l/activation	vasint_l/activation	vaslat_l/activation	vasmed_l/activation	addbrev_r/activation	addlong_r/activation	addmagDist_r/activation	addmagIsch_r/activation	addmagMid_r/activation	addmagProx_r/activation	bflh_r/activation	bfsh_r/activation	edl_r/activation	ehl_r/activation	fdl_r/activation	fhl_r/activation	gaslat_r/activation	gasmed_r/activation	glmax1_r/activation	glmax2_r/activation	glmax3_r/activation	glmed1_r/activation	glmed2_r/activation	glmed3_r/activation	glmin1_r/activation	glmin2_r/activation	glmin3_r/activation	grac_r/activation	iliacus_r/activation	perbrev_r/activation	perlong_r/activation	piri_r/activation	psoas_r/activation	recfem_r/activation	sart_r/activation	semimem_r/activation	semiten_r/activation	soleus_r/activation	tfl_r/activation	tibant_r/activation	tibpost_r/activation	vasint_r/activation	vaslat_r/activation	vasmed_r/activation	
          1.66000000	         -8.91659125	          5.24328044	        -34.48436556	          1.25202858	          0.86913708	          0.39827086	         26.87753793	         -9.46246342	         -1.74309883	         25.00859874	         -5.01461380	         -7.04745592	         51.27482145	         48.78337886	         23.52399819	         24.74074753	        -11.40297913	        -15.22600187	        -16.76115870	        -20.13975252	        -11.93266169	         -2.25041563	         -0.61934618	         -7.67437137	        -21.24477767	         12.52792648	        -13.14941153	        -14.17438273	          3.39665135	         25.06434497	         28.68905408	         74.82381462	         72.82258455	          0.01439007	          0.01439773	          0.02753064	          0.02021822	          0.02318402	          0.15633777	          0.10188515	          0.32110291	          0.09409245	          0.13578740	          0.03144941	          0.04609100	          0.15867594	          0.25457009	          0.07341177	          0.14038802	          0.11691859	          0.01002455	          0.01198105	          0.05238830	          0.01005054	          0.01197149	          0.03888529	          0.14798462	          0.02627888	          0.09450569	          0.07000583	          0.10196733	          0.44108713	          0.30722221	          0.30604756	          0.08596362	          0.31317109	          0.18774768	          0.08062457	          0.14065235	          0.05626128	          0.31549143	          0.39279408	          0.35999117	          0.01002185	          0.01000958	          0.01439344	          0.04138703	          0.01131158	          0.01003124	          0.08131960	          0.24851015	          0.04436106	          0.16209579	          0.01734433	          0.02783719	          0.19802088	          0.36428087	          0.16960774	          0.19644473	          0.06962254	          0.06998431	          0.22023751	          0.34540675	          0.01436600	          0.06380047	          0.15859716	          0.04685594	          0.05716723	          0.29522695	          0.26974470	          0.10954443	          0.05249639	          0.37682834	          0.17314771	          0.46647519	          0.19625268	          0.33533969	          0.11888747	          0.09749495	          0.01996556	          0.30796185	          0.57484370	          0.41793048	
          1.67000000	         -8.50715621	          5.03827364	        -34.43092791	          1.25935356	          0.87978903	          0.40301655	         24.25127214	         -9.20418313	         -2.14073242	         22.31732605	         -4.90285095	         -7.62296447	         47.86366070	         45.28603654	         21.62777856	         22.60935927	        -11.51244420	        -15.50991142	        -16.86058380	        -20.80674456	        -11.07222858	         -2.44425027	         -0.68465366	         -9.18442221	        -21.98572342	         11.78636417	        -14.68324482	        -14.63087600	          3.01815207	         25.96801672	         30.09962036	         77.18581479	         75.11251875	          0.01202357	          0.01203214	          0.02294723	          0.01685340	          0.01932806	          0.13033875	          0.20238626	          0.26759405	          0.10011724	          0.11319971	          0.02621551	          0.03841384	          0.18434215	          0.29695344	          0.06119406	          0.11699603	          0.09743784	          0.01001019	          0.01002050	          0.04367254	          0.01002608	          0.01002906	          0.03243018	          0.12333573	          0.02192149	          0.12699290	          0.06345598	          0.31874578	          0.52013761	          0.25601909	          0.25504740	          0.16515896	          0.56333340	          0.15645822	          0.08756296	          0.25944182	          0.04688706	          0.26291088	          0.32732861	          0.29999301	          0.01006741	          0.01003456	          0.01200178	          0.03449153	          0.01012409	          0.01177379	          0.20529787	          0.21851455	          0.24409108	          0.23323670	          0.01446711	          0.02320008	          0.21325676	          0.42865163	          0.14134542	          0.16370640	          0.05802103	          0.05832297	          0.18353794	          0.28785065	          0.01198194	          0.05319082	          0.13219450	          0.03906448	          0.04766001	          0.25568359	          0.22479653	          0.26667047	          0.04379405	          0.31402395	          0.27441170	          0.38898752	          0.36878923	          0.27945048	          0.09908021	          0.53252501	          0.01664094	          0.25663615	          0.47903656	          0.34827563	
          1.68000000	         -8.10290900	          4.83447142	        -34.38633975	          1.26665601	          0.89091568	          0.40769547	         21.48820311	         -8.95782422	         -2.58958246	         19.46435042	         -4.75188927	         -8.27118841	         44.47341001	         41.92339535	         19.70750255	         20.44892827	        -11.54579240	        -15.72367478	        -16.82920482	        -21.16126816	        -10.27174684	         -2.64917677	         -0.61901167	        -10.53045081	        -22.76089207	         11.50080837	        -16.28643795	        -15.14384782	          2.99888384	         26.97516877	         31.67024752	         77.87940046	         75.83226734	          0.01002681	          0.01003161	          0.01912638	          0.01404869	          0.01611135	          0.10862592	          0.16865735	          0.61981494	          0.08347651	          0.09439778	          0.04803785	          0.03209779	          0.15362062	          0.24746305	          0.05103161	          0.09750330	          0.08120205	          0.01003586	          0.01202847	          0.10557260	          0.01007174	          0.01590872	          0.14194057	          0.29793696	          0.15875157	          0.10583015	          0.05288296	          0.26564614	          0.47918843	          0.43797248	          0.73416522	          0.13763318	          0.46944626	          0.13038584	          0.07300705	          0.22439692	          0.17212888	          0.21911122	          0.27279523	          0.24999990	          0.01000446	          0.01000303	          0.01000963	          0.02874531	          0.01000603	          0.01001197	          0.17108305	          0.73950041	          0.20341106	          0.19436833	          0.04905929	          0.09373706	          0.17813309	          0.36041363	          0.11779290	          0.13642427	          0.04835277	          0.04860842	          0.15299856	          0.23989763	          0.01008904	          0.19519863	          0.33040491	          0.43912247	          0.34743199	          0.21307308	          0.18733306	          0.22223245	          0.61146446	          0.46582028	          0.75813310	          0.32415720	          0.52829334	          0.38812885	          0.08267115	          0.45509397	          0.13774309	          0.21392893	          0.40870027	          0.29023663	
          1.69000000	         -7.68696782	          4.61244057	        -34.37824164	          1.27375194	          0.90197767	          0.41228270	         18.72386202	         -8.75735844	         -3.15448670	         16.62228854	         -4.54032663	         -8.86018848	         41.10346802	         38.56492390	         17.64866998	         18.17828412	        -11.41076071	        -15.85734876	        -16.80298788	        -21.34347940	         -9.56327521	         -2.85947562	         -0.39202687	        -11.64946219	        -23.59071035	         11.46871466	        -18.01637730	        -15.68833737	          3.25289009	         28.09215625	         33.35991862	         77.58068178	         75.68435803	          0.01217746	          0.12740000	          0.01594696	          0.01172101	          0.01344285	          0.16642904	          0.14055160	          0.51651429	          0.06956915	          0.07868451	          0.04766926	          0.06064414	          0.12808630	          0.23534515	          0.04254260	          0.08125838	          0.06767604	          0.01001651	          0.01006271	          0.08798763	          0.01004306	          0.01328566	          0.11829396	          0.24828460	          0.13233072	          0.08821424	          0.04407441	          0.22139253	          0.39936399	          0.36498288	          0.61180729	          0.11469586	          0.39120747	          0.10867939	          0.13933800	          0.20494913	          0.17849546	          0.42237988	          0.25383522	          0.24218484	          0.03396271	          0.08202423	          0.01305451	          0.02396669	          0.01462176	          0.04564281	          0.14257103	          0.61625179	          0.16951494	          0.16198654	          0.05906511	          0.09353055	          0.19095335	          0.38942707	          0.09816478	          0.11368927	          0.04029803	          0.04051465	          0.12750392	          0.19991851	          0.01005355	          0.16267508	          0.27534115	          0.36593776	          0.28953461	          0.17756554	          0.15611377	          0.18520027	          0.50955912	          0.38818959	          0.63178006	          0.27013243	          0.44024656	          0.32344614	          0.17330083	          0.37924655	          0.13469922	          0.47622185	          0.38636106	          0.29228411	
